# ASF file generated by Tido's ASF writer for MATLAB.
:version 1.10
:name VICON
:units
  mass 1
  length 0.45000000000000001
  angle deg
:documentation
   .ast/.asf automatically generated from VICON data using
   VICON BodyBuilder and BodyLanguage model FoxedUp or BRILLIANT.MOD
:root
  axis xyz
  order tx ty tz rx ry rz 
  position 0 0 0
  orientation 0 0 0
:bonedata
  begin
    id 1
    name lhipjoint
    direction 0.44017800000000001 -0.82263900000000001 0.359871
    length 1.1390085000000001
    axis 0 0 0 xyz
  end
  begin
    id 2
    name lfemur
    direction 0.34201999999999999 -0.939693 0
    length 3.5465939999999998
    axis 0 0 20 xyz
    dof rx ry rz 
    limits (-160 20)
           (-70 70)
           (-60 70)
  end
  begin
    id 3
    name ltibia
    direction 0.34201999999999999 -0.939693 0
    length 3.7970234999999999
    axis 0 0 20 xyz
    dof rx 
    limits (-10 170)
  end
  begin
    id 4
    name lfoot
    direction 0.088635099999999994 -0.24352299999999999 0.96583699999999995
    length 1.1853629999999999
    axis -90 7.62852e-016 20 xyz
    dof rx rz 
    limits (-45 90)
           (-70 20)
  end
  begin
    id 5
    name ltoes
    direction 1.53703e-011 -4.2171700000000001e-011 1
    length 0.59142150000000004
    axis -90 7.62852e-016 20 xyz
    dof rx 
    limits (-90 20)
  end
  begin
    id 6
    name rhipjoint
    direction -0.399779 -0.83977299999999999 0.367367
    length 1.115766
    axis 0 0 0 xyz
  end
  begin
    id 7
    name rfemur
    direction -0.34201999999999999 -0.939693 0
    length 3.4866269999999999
    axis 0 0 -20 xyz
    dof rx ry rz 
    limits (-160 20)
           (-70 70)
           (-70 60)
  end
  begin
    id 8
    name rtibia
    direction -0.34201999999999999 -0.939693 0
    length 3.9349440000000002
    axis 0 0 -20 xyz
    dof rx 
    limits (-10 170)
  end
  begin
    id 9
    name rfoot
    direction -0.108514 -0.29813899999999999 0.94833400000000001
    length 1.1974590000000001
    axis -90 -7.62852e-016 -20 xyz
    dof rx rz 
    limits (-45 90)
           (-20 70)
  end
  begin
    id 10
    name rtoes
    direction -1.5339199999999999e-011 -4.2207699999999999e-011 1
    length 0.59392350000000005
    axis -90 -7.62852e-016 -20 xyz
    dof rx 
    limits (-90 20)
  end
  begin
    id 11
    name lowerback
    direction 0.011325699999999999 0.99986600000000003 0.0118602
    length 1.164123
    axis 0 0 0 xyz
    dof rx ry rz 
    limits (-20 45)
           (-30 30)
           (-30 30)
  end
  begin
    id 12
    name upperback
    direction -0.016474699999999998 0.99519299999999999 -0.096537499999999998
    length 1.135656
    axis 0 0 0 xyz
    dof rx ry rz 
    limits (-20 45)
           (-30 30)
           (-30 30)
  end
  begin
    id 13
    name thorax
    direction -0.019430099999999999 0.99433000000000005 -0.10455200000000001
    length 1.1524455
    axis 0 0 0 xyz
    dof rx ry rz 
    limits (-20 45)
           (-30 30)
           (-30 30)
  end
  begin
    id 14
    name lowerneck
    direction 0.014854300000000001 0.995587 -0.092657000000000003
    length 0.772119
    axis 0 0 0 xyz
    dof rx ry rz 
    limits (-20 45)
           (-30 30)
           (-30 30)
  end
  begin
    id 15
    name upperneck
    direction -0.0135467 0.99365599999999998 -0.111639
    length 0.76021650000000007
    axis 0 0 0 xyz
    dof rx ry rz 
    limits (-20 45)
           (-30 30)
           (-30 30)
  end
  begin
    id 16
    name head
    direction -0.0061534900000000002 0.99954699999999996 -0.029447999999999998
    length 0.78578999999999999
    axis 0 0 0 xyz
    dof rx ry rz 
    limits (-20 45)
           (-30 30)
           (-30 30)
  end
  begin
    id 17
    name lclavicle
    direction 0.98826700000000001 0.14988499999999999 0.029371299999999999
    length 2.012499
    axis 0 0 0 xyz
    dof ry rz 
    limits (-20 10)
           (0 20)
  end
  begin
    id 18
    name lhumerus
    direction 1 -4.4898600000000001e-011 -1.1483300000000001e-027
    length 2.4171659999999999
    axis 180 -30 -90 xyz
    dof rx ry rz 
    limits (-60 90)
           (-90 90)
           (-90 90)
  end
  begin
    id 19
    name lradius
    direction 0.99999800000000005 0.00170963 -0.00098705499999999992
    length 1.773954
    axis 180 -30 -90 xyz
    dof rx 
    limits (-10 170)
  end
  begin
    id 20
    name lwrist
    direction 0.99999800000000005 7.53149e-005 -0.00194706
    length 0.88697700000000002
    axis 4.6505600000000004e-015 90 90 xyz
    dof ry 
    limits (-180 0)
  end
  begin
    id 21
    name lhand
    direction 1 -4.48973e-011 -1.3174599999999999e-026
    length 0.5306265
    axis 8.4064999999999996e-015 90 90 xyz
    dof rx rz 
    limits (-90 90)
           (-45 45)
  end
  begin
    id 22
    name lfingers
    direction 1 -4.49107e-011 -2.6349199999999999e-026
    length 0.42780555000000003
    axis 1.6812999999999999e-014 90 90 xyz
    dof rx 
    limits (0 90)
  end
  begin
    id 23
    name lthumb
    direction 0.70710700000000004 -6.3504800000000005e-011 0.70710700000000004
    length 0.6142455
    axis -90 45 2.8529899999999998e-015 xyz
    dof rx rz 
    limits (-45 45)
           (-45 45)
  end
  begin
    id 24
    name rclavicle
    direction -0.996699 0.064289499999999999 -0.049572499999999999
    length 2.0817494999999999
    axis 0 0 0 xyz
    dof ry rz 
    limits (-10 20)
           (-20 0)
  end
  begin
    id 25
    name rhumerus
    direction -1 -4.4891899999999998e-011 -2.4105900000000001e-027
    length 2.474145
    axis 180 30 90 xyz
    dof rx ry rz 
    limits (-90 60)
           (-90 90)
           (-90 90)
  end
  begin
    id 26
    name rradius
    direction -0.99999899999999997 0.0011810099999999999 -0.00068185800000000003
    length 1.5677145000000001
    axis 180 30 90 xyz
    dof rx 
    limits (-10 170)
  end
  begin
    id 27
    name rwrist
    direction -0.99999899999999997 0.000321823 -0.00132288
    length 0.78385499999999997
    axis 4.6505600000000004e-015 -90 -90 xyz
    dof ry 
    limits (-180 0)
  end
  begin
    id 28
    name rhand
    direction -1 -4.4902199999999998e-011 -1.3174599999999999e-026
    length 0.60719400000000001
    axis 8.4064999999999996e-015 -90 -90 xyz
    dof rx rz 
    limits (-90 90)
           (-45 45)
  end
  begin
    id 29
    name rfingers
    direction -1 -4.4917800000000002e-011 -2.6349199999999999e-026
    length 0.48953249999999998
    axis 1.6812999999999999e-014 -90 -90 xyz
    dof rx 
    limits (0 90)
  end
  begin
    id 30
    name rthumb
    direction -0.70710700000000004 -6.3471300000000002e-011 0.70710700000000004
    length 0.70287750000000004
    axis -90 -45 -2.8529899999999998e-015 xyz
    dof rx rz 
    limits (-45 45)
           (-45 45)
  end
:hierarchy
begin
  root lhipjoint rhipjoint lowerback 
  lhipjoint lfemur 
  lfemur ltibia 
  ltibia lfoot 
  lfoot ltoes 
  rhipjoint rfemur 
  rfemur rtibia 
  rtibia rfoot 
  rfoot rtoes 
  lowerback upperback 
  upperback thorax 
  thorax lowerneck lclavicle rclavicle 
  lowerneck upperneck 
  upperneck head 
  lclavicle lhumerus 
  lhumerus lradius 
  lradius lwrist 
  lwrist lhand lthumb 
  lhand lfingers 
  rclavicle rhumerus 
  rhumerus rradius 
  rradius rwrist 
  rwrist rhand rthumb 
  rhand rfingers 
end

# AMC file generated by Tido's AMC writer for MATLAB on 27-Nov-2005 at 18:24:20
# Corresponding ASF file: S:\data_MoCap\MoCaDaDB\HDM\Bonn_ASF_AMC_Use IK_on\björn\bjorn.asf
# Number of frames: 542
# Sampling rate: 120
:fully-specified
:degrees
475
root 13.572045000000001 8.5278600000000004 -2.314314 -4.2940199999999997 12.224399999999999 356.94099999999997 
lfemur -26.716100000000001 7.0126600000000003 -15.333500000000001 
ltibia 31.433800000000002 
lfoot -3.6331099999999998 -15.0504 
ltoes -16.532499999999999 
rfemur 3.99051 -11.1251 21.415600000000001 
rtibia 29.727599999999999 
rfoot -16.871300000000002 21.951499999999999 
rtoes 3.8321999999999998 
lowerback -3.43845 2.4668100000000002 6.7580499999999999 
upperback 10.5029 2.7116400000000001 0.10616200000000001 
thorax 13.780799999999999 2.0327799999999998 -3.2252200000000002 
lowerneck 1.2720800000000001 -4.5325899999999999 1.6335900000000001 
upperneck 18.418700000000001 -6.4509699999999999 2.2829999999999999 
head 5.36991 -2.84653 0.17582500000000001 
lclavicle 1.5107600000000001e-014 -1.3914900000000001e-014 
lhumerus -32.770400000000002 14.3673 82.816800000000001 
lradius 13.900499999999999 
lwrist -45.320999999999998 
lhand -7.94529 -6.9047599999999996 
lfingers 7.1250200000000001 
lthumb 17.961500000000001 22.285799999999998 
rclavicle 1.5107600000000001e-014 -1.3914900000000001e-014 
rhumerus -24.0975 -9.2529000000000003 -89.367000000000004 
rradius 61.366900000000001 
rwrist -1.1411100000000001 
rhand -15.0412 15.2859 
rfingers 7.1250200000000001 
rthumb 11.125 -14.3992 
476
root 13.590495000000001 8.5246650000000006 -2.2671584999999999 -4.2912499999999998 12.0778 356.87700000000001 
lfemur -26.7196 6.77189 -15.263299999999999 
ltibia 31.586300000000001 
lfoot -3.24762 -14.5518 
ltoes -15.852499999999999 
rfemur 4.5000400000000003 -10.8566 21.394600000000001 
rtibia 29.444400000000002 
rfoot -16.675699999999999 21.997299999999999 
rtoes 4.16249 
lowerback -3.5089100000000002 2.4530699999999999 6.6672200000000004 
upperback 10.530200000000001 2.7000000000000002 0.0689472 
thorax 13.851699999999999 2.02237 -3.2142900000000001 
lowerneck 1.27912 -4.5216599999999998 1.4517 
upperneck 18.4099 -6.4598199999999997 2.47451 
head 5.3780000000000001 -2.8519199999999998 0.26461899999999999 
lclavicle 1.7536499999999999e-014 1.8288199999999999e-014 
lhumerus -32.220100000000002 15.193899999999999 82.345500000000001 
lradius 13.582100000000001 
lwrist -46.325499999999998 
lhand -8.0652000000000008 -7.0262200000000004 
lfingers 7.1250200000000001 
lthumb 17.8461 22.174900000000001 
rclavicle 1.7536499999999999e-014 1.8288199999999999e-014 
rhumerus -24.038599999999999 -9.38992 -89.272800000000004 
rradius 60.470599999999997 
rwrist -0.97759700000000005 
rhand -14.869300000000001 15.050599999999999 
rfingers 7.1250200000000001 
rthumb 11.290800000000001 -14.625500000000001 
477
root 13.6089 8.5210650000000001 -2.219697 -4.2681100000000001 11.9635 356.85700000000003 
lfemur -26.7105 6.5860000000000003 -15.2584 
ltibia 31.8032 
lfoot -2.7505199999999999 -14.0907 
ltoes -15.110099999999999 
rfemur 4.9867999999999997 -10.6486 21.3184 
rtibia 29.178899999999999 
rfoot -16.473199999999999 22.045200000000001 
rtoes 4.30314 
lowerback -3.60792 2.43276 6.5136000000000003 
upperback 10.558400000000001 2.68411 0.031844499999999998 
thorax 13.936199999999999 2.0033799999999999 -3.1680100000000002 
lowerneck 1.25563 -4.5272100000000002 1.3036300000000001 
upperneck 18.431899999999999 -6.4803899999999999 2.5766900000000001 
head 5.39689 -2.8652199999999999 0.31858700000000001 
lclavicle 4.39811e-015 9.4546999999999996e-015 
lhumerus -31.744900000000001 16.563600000000001 81.686499999999995 
lradius 13.2355 
lwrist -47.879600000000003 
lhand -8.2388999999999992 -7.1647299999999996 
lfingers 7.1250200000000001 
lthumb 17.678999999999998 22.051600000000001 
rclavicle 4.39811e-015 9.4546999999999996e-015 
rhumerus -24.093800000000002 -9.5947399999999998 -89.212500000000006 
rradius 59.613500000000002 
rwrist -0.71658200000000005 
rhand -14.628500000000001 14.7774 
rfingers 7.1250200000000001 
rthumb 11.523 -14.8858 
478
root 13.627305000000002 8.5180949999999989 -2.172285 -4.24939 11.866 356.81400000000002 
lfemur -26.650099999999998 6.1947900000000002 -15.175599999999999 
ltibia 32.067999999999998 
lfoot -2.1459600000000001 -13.4434 
ltoes -14.036799999999999 
rfemur 5.4484199999999996 -10.4297 21.271999999999998 
rtibia 28.941299999999998 
rfoot -16.2361 22.126899999999999 
rtoes 4.6664500000000002 
lowerback -3.7084700000000002 2.4087700000000001 6.3633600000000001 
upperback 10.5899 2.6634199999999999 -0.0070790699999999998 
thorax 14.0258 1.9827300000000001 -3.12635 
lowerneck 1.27329 -4.5390699999999997 1.22651 
upperneck 18.414100000000001 -6.5097500000000004 2.68052 
head 5.3945699999999999 -2.8794400000000002 0.36268400000000001 
lclavicle 7.1314000000000007e-015 -2.6786200000000001e-014 
lhumerus -31.182200000000002 17.442399999999999 81.215000000000003 
lradius 12.936299999999999 
lwrist -48.966000000000001 
lhand -8.3844999999999992 -7.2348800000000004 
lfingers 7.1250200000000001 
lthumb 17.538799999999998 21.994 
rclavicle 7.1314000000000007e-015 -2.6786200000000001e-014 
rhumerus -24.076699999999999 -9.8689099999999996 -89.182100000000005 
rradius 58.628100000000003 
rwrist -0.53883099999999995 
rhand -14.291399999999999 14.471500000000001 
rfingers 7.1250200000000001 
rthumb 11.848100000000001 -15.173299999999999 
479
root 13.645350000000001 8.5153950000000016 -2.1254759999999999 -4.2260900000000001 11.7386 356.79399999999998 
lfemur -26.564900000000002 5.9107700000000003 -15.134600000000001 
ltibia 32.361800000000002 
lfoot -1.53773 -12.830299999999999 
ltoes -13.803100000000001 
rfemur 5.8670400000000003 -10.133699999999999 21.230799999999999 
rtibia 28.773900000000001 
rfoot -16.0928 22.106200000000001 
rtoes 4.70235 
lowerback -3.7843300000000002 2.39453 6.1695599999999997 
upperback 10.615 2.6633100000000001 -0.048562099999999997 
thorax 14.091100000000001 1.9664999999999999 -3.0611000000000002 
lowerneck 1.34016 -4.5518000000000001 1.1660600000000001 
upperneck 18.366399999999999 -6.5389099999999996 2.7892299999999999 
head 5.3743299999999996 -2.8934099999999998 0.40724100000000002 
lclavicle -2.5767499999999999e-014 -2.54444e-014 
lhumerus -30.677099999999999 18.821400000000001 80.574299999999994 
lradius 12.6098 
lwrist -50.609400000000001 
lhand -8.6038700000000006 -7.2364499999999996 
lfingers 7.1250200000000001 
lthumb 17.3277 22.011099999999999 
rclavicle -2.5767499999999999e-014 -2.54444e-014 
rhumerus -24.329899999999999 -9.9449100000000001 -88.993099999999998 
rradius 57.833599999999997 
rwrist -0.59956399999999999 
rhand -13.9704 14.1974 
rfingers 7.1250200000000001 
rthumb 12.1577 -15.4293 
480
root 13.664070000000001 8.5148100000000007 -2.0790449999999998 -4.2222499999999998 11.594200000000001 356.774 
lfemur -26.404699999999998 5.5042600000000004 -15.0642 
ltibia 32.664200000000001 
lfoot -0.99514800000000003 -12.142899999999999 
ltoes -13.838699999999999 
rfemur 6.2588299999999997 -9.78186 21.1983 
rtibia 28.690000000000001 
rfoot -16.0837 21.948 
rtoes 4.0481600000000002 
lowerback -3.8402799999999999 2.3911699999999998 5.9925899999999999 
upperback 10.6419 2.6808700000000001 -0.114041 
thorax 14.151400000000001 1.9622299999999999 -3.0295399999999999 
lowerneck 1.41964 -4.5730399999999998 1.1735100000000001 
upperneck 18.323 -6.5793999999999997 2.88313 
head 5.3510099999999996 -2.9094699999999998 0.43594699999999997 
lclavicle 8.1004800000000002e-015 -9.5416600000000005e-015 
lhumerus -30.178899999999999 20.063500000000001 79.937399999999997 
lradius 12.3207 
lwrist -52.167700000000004 
lhand -8.8789800000000003 -7.2553599999999996 
lfingers 7.1250200000000001 
lthumb 17.062899999999999 22.0153 
rclavicle 8.1004800000000002e-015 -9.5416600000000005e-015 
rhumerus -24.425999999999998 -10.1441 -88.928899999999999 
rradius 56.834699999999998 
rwrist -0.60607800000000001 
rhand -13.7052 13.9336 
rfingers 7.1250200000000001 
rthumb 12.413399999999999 -15.6778 
481
root 13.68252 8.5143149999999999 -2.0329739999999998 -4.1863999999999999 11.477499999999999 356.75299999999999 
lfemur -26.276599999999998 5.1207599999999998 -15.0145 
ltibia 32.979300000000002 
lfoot -0.59745599999999999 -11.5322 
ltoes -14.0541 
rfemur 6.5514799999999997 -9.4168199999999995 21.191299999999998 
rtibia 28.7043 
rfoot -16.110499999999998 21.7821 
rtoes 3.3018200000000002 
lowerback -3.9096099999999998 2.3718599999999999 5.7595299999999998 
upperback 10.6549 2.67713 -0.13472400000000001 
thorax 14.193199999999999 1.93729 -2.9206799999999999 
lowerneck 1.49058 -4.5934699999999999 1.10232 
upperneck 18.309999999999999 -6.6141100000000002 2.9570599999999998 
head 5.34023 -2.9281899999999998 0.47097800000000001 
lclavicle 5.5113000000000001e-014 -1.9083300000000001e-014 
lhumerus -29.796600000000002 21.580100000000002 79.276499999999999 
lradius 12.0921 
lwrist -53.987400000000001 
lhand -9.1813099999999999 -7.2405099999999996 
lfingers 7.1250200000000001 
lthumb 16.771899999999999 22.055099999999999 
rclavicle 5.5113000000000001e-014 -1.9083300000000001e-014 
rhumerus -24.4222 -10.492900000000001 -88.838499999999996 
rradius 55.662300000000002 
rwrist -0.47240100000000002 
rhand -13.414199999999999 13.771000000000001 
rfingers 7.1250200000000001 
rthumb 12.693899999999999 -15.8232 
482
root 13.700790000000001 8.5137300000000007 -1.9872540000000001 -4.1734499999999999 11.3378 356.77600000000001 
lfemur -26.078700000000001 4.6646099999999997 -14.994300000000001 
ltibia 33.298000000000002 
lfoot -0.43223499999999998 -10.8962 
ltoes -13.974500000000001 
rfemur 6.8264399999999998 -8.9993599999999994 21.147400000000001 
rtibia 28.807500000000001 
rfoot -16.211400000000001 21.558800000000002 
rtoes 2.1476199999999999 
lowerback -3.9516399999999998 2.3667699999999998 5.5269500000000003 
upperback 10.6806 2.70085 -0.206238 
thorax 14.2399 1.9298 -2.86442 
lowerneck 1.60148 -4.6169599999999997 1.0506599999999999 
upperneck 18.239899999999999 -6.6577099999999998 3.0791200000000001 
head 5.3061999999999996 -2.9490099999999999 0.51906799999999997 
lclavicle -1.6747600000000001e-014 -1.8685799999999999e-014 
lhumerus -29.198799999999999 22.8401 78.687899999999999 
lradius 11.7658 
lwrist -55.510300000000001 
lhand -9.4469899999999996 -7.1864699999999999 
lfingers 7.1250200000000001 
lthumb 16.516100000000002 22.130600000000001 
rclavicle -1.6747600000000001e-014 -1.8685799999999999e-014 
rhumerus -24.459499999999998 -10.9938 -88.838499999999996 
rradius 54.500100000000003 
rwrist -0.217477 
rhand -13.187200000000001 13.630599999999999 
rfingers 7.1250200000000001 
rthumb 12.912800000000001 -15.9499 
483
root 13.719015000000001 8.5123800000000003 -1.941651 -4.1371700000000002 11.185600000000001 356.80099999999999 
lfemur -25.904 4.25786 -14.983700000000001 
ltibia 33.634799999999998 
lfoot -0.47972399999999998 -10.3916 
ltoes -13.779 
rfemur 7.0333100000000002 -8.5378500000000006 21.116099999999999 
rtibia 28.986899999999999 
rfoot -16.271000000000001 21.370000000000001 
rtoes 1.1787399999999999 
lowerback -4.0180199999999999 2.36415 5.2720399999999996 
upperback 10.7019 2.7271899999999998 -0.25978299999999999 
thorax 14.2941 1.9194800000000001 -2.7745500000000001 
lowerneck 1.71075 -4.6258699999999999 0.87819000000000003 
upperneck 18.1858 -6.6927199999999996 3.2957900000000002 
head 5.2843099999999996 -2.9674299999999998 0.616259 
lclavicle 1.81391e-014 1.74931e-014 
lhumerus -28.764600000000002 24.4773 78.017700000000005 
lradius 11.5336 
lwrist -57.427 
lhand -9.75014 -7.1707599999999996 
lfingers 7.1250200000000001 
lthumb 16.2242 22.170400000000001 
rclavicle 1.81391e-014 1.74931e-014 
rhumerus -24.530100000000001 -11.3804 -88.6584 
rradius 53.281300000000002 
rwrist 0.018866899999999999 
rhand -13.004099999999999 13.6556 
rfingers 7.1250200000000001 
rthumb 13.0892 -15.913600000000001 
